<?xml version="1.0" encoding="UTF-8"?>
<svg version="1.1" xmlns="http://www.w3.org/2000/svg" width="180" height="180">
<path d="M0 0 C3.47282516 2.86391971 6.75094673 5.88632395 10 9 C10.7115625 9.64839844 11.423125 10.29679687 12.15625 10.96484375 C20.9603078 19.24404426 29.56231391 32.00998585 32 44 C28.77298796 42.60186349 26.89504935 40.98288368 24.5625 38.375 C6.55152899 19.92881965 -23.13231505 13.08493899 -48.03027344 12.64648438 C-60.33040032 12.57991542 -72.06052499 12.89948712 -84 16 C-84.98299072 16.24943359 -84.98299072 16.24943359 -85.98583984 16.50390625 C-104.32738694 21.2782786 -121.02388906 30.04524382 -134 44 C-134.66 43.67 -135.32 43.34 -136 43 C-132.14262527 32.91031787 -127.55268635 24.59387715 -121 16 C-120.44699219 15.26136719 -119.89398438 14.52273437 -119.32421875 13.76171875 C-111.70086121 4.3223753 -100.85145515 -2.8148984 -90 -8 C-88.60201172 -8.67675781 -88.60201172 -8.67675781 -87.17578125 -9.3671875 C-59.30617261 -21.94386002 -24.57748873 -18.00905562 0 0 Z " fill="#F37625" transform="translate(142,16)"/>
<path d="M0 0 C3.22701204 1.39813651 5.10495065 3.01711632 7.4375 5.625 C25.31432314 23.8310464 54.76383493 30.99084463 79.41943359 31.24145508 C91.89557708 31.26840638 103.84655368 31.15607821 116 28 C116.65532715 27.83371094 117.3106543 27.66742188 117.98583984 27.49609375 C136.32738694 22.7217214 153.02388906 13.95475618 166 0 C166.99 0.495 166.99 0.495 168 1 C164.14262527 11.08968213 159.55268635 19.40612285 153 28 C152.44699219 28.73863281 151.89398438 29.47726563 151.32421875 30.23828125 C138.42795103 46.20661275 117.30367228 57.05892262 97.22558594 59.76855469 C73.00798057 62.28701562 50.85837035 57.48805326 31 43 C27.53132029 40.13235437 24.25043151 37.11104765 21 34 C20.36191406 33.42507812 19.72382813 32.85015625 19.06640625 32.2578125 C10.54647913 24.32612088 2.33498825 11.48488407 0 0 Z " fill="#F37625" transform="translate(6,120)"/>
</svg>
